<?xml version="1.0" standalone="no"?><svg xmlns="http://www.w3.org/2000/svg" viewBox="0 0 1440 320"><path fill="#273036" fill-opacity="1" d="M0,320L21.8,298.7C43.6,277,87,235,131,197.3C174.5,160,218,128,262,138.7C305.5,149,349,203,393,197.3C436.4,192,480,128,524,117.3C567.3,107,611,149,655,181.3C698.2,213,742,235,785,229.3C829.1,224,873,192,916,181.3C960,171,1004,181,1047,176C1090.9,171,1135,149,1178,122.7C1221.8,96,1265,64,1309,48C1352.7,32,1396,32,1418,32L1440,32L1440,320L1418.2,320C1396.4,320,1353,320,1309,320C1265.5,320,1222,320,1178,320C1134.5,320,1091,320,1047,320C1003.6,320,960,320,916,320C872.7,320,829,320,785,320C741.8,320,698,320,655,320C610.9,320,567,320,524,320C480,320,436,320,393,320C349.1,320,305,320,262,320C218.2,320,175,320,131,320C87.3,320,44,320,22,320L0,320Z"></path></svg>