<?xml version="1.0" standalone="no"?><svg xmlns="http://www.w3.org/2000/svg" viewBox="0 0 1440 320"><path fill="#273036" fill-opacity="1" d="M0,256L21.8,240C43.6,224,87,192,131,186.7C174.5,181,218,203,262,224C305.5,245,349,267,393,266.7C436.4,267,480,245,524,202.7C567.3,160,611,96,655,101.3C698.2,107,742,181,785,218.7C829.1,256,873,256,916,245.3C960,235,1004,213,1047,218.7C1090.9,224,1135,256,1178,272C1221.8,288,1265,288,1309,293.3C1352.7,299,1396,309,1418,314.7L1440,320L1440,0L1418.2,0C1396.4,0,1353,0,1309,0C1265.5,0,1222,0,1178,0C1134.5,0,1091,0,1047,0C1003.6,0,960,0,916,0C872.7,0,829,0,785,0C741.8,0,698,0,655,0C610.9,0,567,0,524,0C480,0,436,0,393,0C349.1,0,305,0,262,0C218.2,0,175,0,131,0C87.3,0,44,0,22,0L0,0Z"></path></svg>